<?xml version="1.0" standalone="no"?>
<!DOCTYPE svg PUBLIC "-//W3C//DTD SVG 20010904//EN"
 "http://www.w3.org/TR/2001/REC-SVG-20010904/DTD/svg10.dtd">
<svg version="1.0" xmlns="http://www.w3.org/2000/svg"
 width="664.000000pt" height="508.000000pt" viewBox="0 0 664.000000 508.000000"
 preserveAspectRatio="xMidYMid meet">

<g transform="translate(0.000000,508.000000) scale(0.100000,-0.100000)"
fill="#1256DB" stroke="none">
<path d="M2202 4438 c-6 -7 -79 -269 -163 -583 -84 -313 -155 -573 -158 -577
-3 -3 -174 39 -379 93 -356 96 -375 99 -393 83 -22 -19 -25 -66 -6 -82 14 -12
794 -222 824 -222 11 0 25 6 32 13 6 8 85 290 176 627 153 572 164 616 150
637 -17 26 -65 32 -83 11z"/>
<path d="M685 2809 c-8 -23 -285 -1061 -296 -1107 -48 -215 -18 -485 76 -689
78 -168 232 -350 384 -453 93 -62 237 -127 348 -157 87 -23 117 -27 268 -27
143 0 184 3 257 21 187 48 332 122 475 242 140 119 267 312 326 496 32 100
297 1087 297 1106 0 10 -294 92 -1043 292 -573 153 -1052 281 -1064 284 -14 3
-25 0 -28 -8z"/>
<path d="M3276 2518 c-9 -29 -103 -379 -210 -778 -107 -399 -206 -756 -220
-794 -57 -151 -158 -315 -286 -468 l-31 -37 83 -26 c161 -51 224 -55 856 -55
l582 0 0 1105 0 1105 -380 0 -379 0 -15 -52z"/>
<path d="M4243 832 c-26 -17 -45 -84 -38 -138 11 -89 21 -94 193 -94 81 0 152
4 159 8 26 17 45 84 38 138 -11 89 -21 94 -193 94 -81 0 -152 -4 -159 -8z"/>
<path d="M4743 813 c-13 -19 -18 -47 -18 -93 0 -46 5 -74 18 -93 l17 -27 620
0 620 0 17 27 c13 19 18 47 18 93 0 46 -5 74 -18 93 l-17 27 -620 0 -620 0
-17 -27z"/>
</g>
</svg>
