<?xml version="1.0" standalone="no"?>
<!DOCTYPE svg PUBLIC "-//W3C//DTD SVG 20010904//EN"
 "http://www.w3.org/TR/2001/REC-SVG-20010904/DTD/svg10.dtd">
<svg version="1.0" xmlns="http://www.w3.org/2000/svg"
 width="744.000000pt" height="644.000000pt" viewBox="0 0 744.000000 644.000000"
 preserveAspectRatio="xMidYMid meet">

<g transform="translate(0.000000,644.000000) scale(0.100000,-0.100000)"
fill="#1256DB" stroke="none">
<path d="M2422 5609 c-12 -5 -25 -16 -29 -24 -3 -9 -74 -271 -158 -583 -110
-409 -156 -567 -166 -566 -8 1 -178 45 -378 98 -346 93 -364 96 -382 80 -22
-19 -25 -66 -6 -82 14 -12 794 -222 824 -222 11 0 26 6 32 13 6 8 85 289 175
627 124 461 163 617 155 631 -14 27 -41 38 -67 28z"/>
<path d="M6510 4352 c-14 -2 -28 -7 -32 -10 -9 -9 -318 -1165 -318 -1190 0
-24 25 -47 73 -67 39 -16 114 -20 135 -6 20 12 335 1192 324 1211 -22 38 -122
72 -182 62z"/>
<path d="M885 3969 c-8 -23 -285 -1061 -296 -1107 -48 -215 -18 -485 76 -689
76 -165 218 -335 366 -440 92 -65 252 -140 366 -170 87 -24 117 -27 268 -27
187 -1 265 13 422 74 274 105 516 354 622 640 23 61 311 1129 311 1151 0 10
-295 93 -1043 292 -573 153 -1052 281 -1064 284 -14 3 -25 0 -28 -8z"/>
<path d="M6112 2952 c-7 -5 -31 -75 -52 -156 -32 -116 -38 -152 -29 -167 16
-30 86 -59 146 -59 67 0 70 5 114 178 37 143 36 148 -14 186 -29 22 -141 34
-165 18z"/>
<path d="M4295 2897 c-16 -44 -296 -1105 -306 -1157 -16 -86 -16 -277 0 -370
77 -440 391 -776 830 -891 109 -29 318 -36 437 -15 318 55 585 234 755 505 32
51 72 128 88 171 27 70 334 1191 327 1197 -1 1 -465 127 -1032 278 -566 152
-1044 280 -1062 285 -23 6 -34 5 -37 -3z"/>
</g>
</svg>
